<svg width="33" height="22" viewBox="0 0 33 22" fill="none" xmlns="http://www.w3.org/2000/svg">
<path d="M0.683151 1.00935C0.900604 0.803819 1.15799 0.642459 1.4403 0.534693C1.7226 0.426926 2.02416 0.374913 2.32737 0.38169C4.28819 0.386339 6.249 0.390291 8.20982 0.393546C10.1948 0.393546 12.1798 0.383782 14.164 0.382387C17.6705 0.382387 21.1768 0.382387 24.6828 0.382387C26.6678 0.382387 28.6528 0.386571 30.637 0.382387C31.1913 0.37402 31.7305 0.55854 32.1571 0.90265C32.2016 0.943619 32.2438 0.986923 32.2834 1.03237C31.7346 1.55891 31.1923 2.07359 30.6564 2.59455C27.6162 5.54875 24.5767 8.50342 21.5379 11.4585C20.8872 12.0911 20.2624 12.755 19.5665 13.3367C18.6611 14.0894 17.4983 14.485 16.3076 14.4452C15.1169 14.4055 13.9848 13.9333 13.1346 13.1219C11.5133 11.5743 9.9186 10.001 8.31169 8.43949L4.31592 4.55844C3.15187 3.42679 1.98829 2.29444 0.82519 1.16139C0.785734 1.12094 0.74628 1.077 0.683151 1.00935Z" fill="#27356C"/>
<path d="M1.43556 21.5403L10.7112 12.5264C11.1036 12.919 11.5132 13.3172 11.9092 13.7287C12.9444 14.8041 14.1955 15.4841 15.7113 15.6549C17.697 15.8795 19.4108 15.302 20.8355 13.9337C21.3154 13.472 21.7874 13.0034 22.2523 12.5487L31.4892 21.5361C31.1828 21.5724 30.8923 21.6345 30.6003 21.6366C29.2653 21.6477 27.9303 21.6421 26.5953 21.6421H8.9278C6.73981 21.6421 4.55183 21.6456 2.36384 21.6373C2.07689 21.6379 1.78421 21.5787 1.43556 21.5403Z" fill="#27356C"/>
<path d="M0.0207776 2.21375L9.68737 11.6329L0.390224 20.6747C0.13301 20.3213 -0.0035007 19.8983 -2.68614e-05 19.4654C-2.68614e-05 17.8223 -2.68614e-05 16.1795 -2.68614e-05 14.5369C-2.68614e-05 10.5621 -2.68614e-05 6.58693 -2.68614e-05 2.61127C0.000690511 2.49689 0.0121691 2.37345 0.0207776 2.21375Z" fill="#27356C"/>
<path d="M32.959 2.21802V2.67273C32.959 6.12952 32.959 9.58655 32.959 13.0438V19.4488C32.9623 19.8777 32.8325 20.2977 32.5867 20.6539L23.2932 11.633L32.959 2.21802Z" fill="#27356C"/>
</svg>
