<svg width="32" height="32" viewBox="0 0 32 32" fill="none" xmlns="http://www.w3.org/2000/svg">
<path d="M0.761475 27.4135V3.8463C0.798319 3.75453 0.825665 3.65921 0.84308 3.56184C0.965105 1.91933 2.22349 0.482507 3.84109 0.148346C4.09506 0.095584 4.35055 0.0489389 4.60375 0H28.1562C28.2476 0.0370463 28.3427 0.0642179 28.4399 0.0810549C30.0819 0.203402 31.5172 1.46282 31.852 3.08162C31.9039 3.3355 31.9504 3.5909 32 3.8463V27.4135C31.939 27.7193 31.8932 28.0252 31.8147 28.3311C31.4333 29.7839 30.1711 31.1978 27.9434 31.2276C26.1435 31.2513 24.3436 31.2276 22.5438 31.236C22.3272 31.236 22.2646 31.1527 22.2654 30.9462C22.269 27.5786 22.269 24.2108 22.2654 20.8426C22.2654 20.6132 22.3417 20.5368 22.5705 20.5437C23.343 20.5536 24.1156 20.5375 24.8882 20.5528C25.1292 20.5574 25.2482 20.4832 25.3382 20.2554C25.9018 18.8163 26.4821 17.384 27.0534 15.9487C27.0923 15.8516 27.1144 15.7476 27.1571 15.6031H22.5888C22.4362 15.6031 22.2654 15.6352 22.2662 15.3951C22.2662 14.1946 22.2402 12.9925 22.2837 11.7935C22.3104 11.0625 22.5125 10.8759 23.2363 10.8362C24.0874 10.7864 24.9416 10.7956 25.7942 10.7796C25.9109 10.7796 26.0284 10.7796 26.1451 10.7796V5.8352H25.7919C24.5412 5.8352 23.2904 5.82526 22.0404 5.84132C21.6653 5.8454 21.2917 5.88845 20.9254 5.96979C18.1928 6.58152 16.2968 9.06976 16.3495 11.7278C16.3716 12.8748 16.3533 14.0271 16.3495 15.1764C16.3495 15.6031 16.3495 15.6031 15.9094 15.6039H12.4691V20.5482H12.8504C13.8876 20.5482 14.9248 20.5597 15.9613 20.5414C16.2709 20.536 16.3579 20.6255 16.3563 20.9359C16.3456 24.2324 16.3502 27.5289 16.3495 30.8254C16.3495 31.2322 16.3495 31.233 15.9514 31.233C12.5555 31.233 9.15937 31.233 5.76299 31.233C5.29701 31.233 4.8295 31.2123 4.36428 31.181C3.5375 31.1237 2.75204 30.7971 2.12752 30.2509C1.50301 29.7046 1.07366 28.9687 0.904855 28.1552C0.852994 27.9051 0.809522 27.6589 0.761475 27.4135Z" fill="white"/>
</svg>
