<svg width="32" height="32" viewBox="0 0 32 32" fill="none" xmlns="http://www.w3.org/2000/svg">
<path d="M0 27.2308V4.02966C0.0323395 3.946 0.0571808 3.85965 0.0742314 3.77161C0.170509 2.89968 0.538881 2.07998 1.1273 1.42833C1.71573 0.77668 2.49445 0.326016 3.35345 0.140018L4.02969 0H27.233C27.5773 0.0765229 27.928 0.129437 28.2641 0.232824C30.0644 0.78558 31.2366 2.43082 31.2374 4.396C31.2374 11.7531 31.2374 19.1101 31.2374 26.4672C31.2374 26.7928 31.2195 27.1184 31.1885 27.44C31.1051 28.3263 30.7389 29.1625 30.1437 29.8256C29.5486 30.4887 28.7559 30.9437 27.8823 31.1237L27.2347 31.2604H4.02969C3.9466 31.2274 3.86056 31.2023 3.77273 31.1855C2.89967 31.0875 2.07947 30.7185 1.42777 30.1305C0.776065 29.5424 0.325745 28.7651 0.140305 27.9081C0.0929929 27.6826 0.0464964 27.4546 0 27.2308ZM16.6898 13.687C16.6898 13.4583 16.6938 13.2246 16.6898 12.991C16.6808 12.5473 16.4377 12.2705 15.9988 12.264C15.0526 12.2505 14.1064 12.2505 13.1601 12.264C12.7286 12.2713 12.4945 12.5384 12.4945 12.9698C12.4945 16.8871 12.4945 20.8042 12.4945 24.721C12.4945 25.1988 12.7237 25.4211 13.2099 25.4219C14.0754 25.4219 14.94 25.4219 15.8047 25.4219C16.4866 25.4219 16.6873 25.2192 16.6873 24.5264C16.6873 22.5116 16.6783 20.4976 16.693 18.4827C16.6836 17.7338 16.9283 17.0036 17.3872 16.4109C17.8872 15.7759 18.579 15.6221 19.3327 15.7222C20.0734 15.8207 20.584 16.2538 20.8059 16.9669C20.9389 17.3614 21.0166 17.7723 21.0368 18.188C21.0661 19.572 21.0506 20.9559 21.0523 22.3398C21.0523 23.1132 21.0474 23.8866 21.0523 24.6599C21.0572 25.1858 21.3019 25.4235 21.819 25.4243H24.6292C25.135 25.4243 25.3634 25.2029 25.3634 24.708C25.3634 22.4188 25.3878 20.1296 25.3471 17.8412C25.3284 17.0402 25.2245 16.2433 25.0371 15.4641C24.6667 13.9011 23.7874 12.7411 22.1674 12.2893C21.8256 12.1936 21.4754 12.1309 21.1216 12.102C19.969 12.0084 18.8376 12.0955 17.8301 12.7297C17.4182 12.9861 17.0756 13.3565 16.6898 13.687ZM6.50542 18.8393C6.50542 20.7203 6.50542 22.6014 6.50542 24.4825C6.50542 25.2412 6.68569 25.4235 7.43208 25.4235H9.84255C10.4568 25.4195 10.7064 25.1752 10.7064 24.5517C10.7064 20.7483 10.7064 16.9452 10.7064 13.1424C10.7064 12.5278 10.4315 12.2583 9.80911 12.2567C8.99338 12.2567 8.17983 12.2567 7.36846 12.2567C6.76645 12.2567 6.51113 12.5115 6.51031 13.1041C6.5065 15.0156 6.50487 16.9273 6.50542 18.8393ZM8.60673 5.83691C8.25268 5.83412 7.90155 5.90106 7.57346 6.0339C7.24537 6.16675 6.94676 6.36287 6.69474 6.61106C6.44271 6.85924 6.24223 7.15461 6.10476 7.48024C5.96729 7.80586 5.89554 8.15536 5.89362 8.5087C5.87486 9.74284 6.82518 11.2057 8.60265 11.2301C10.071 11.2505 11.3149 9.98462 11.3084 8.52824C11.3073 7.81394 11.0222 7.12927 10.5156 6.62464C10.009 6.12002 9.32248 5.83669 8.60673 5.83691Z" fill="white"/>
</svg>
