<svg width="44" height="125" viewBox="0 0 44 125" fill="none" xmlns="http://www.w3.org/2000/svg">
<path d="M15.6647 63.0598C15.6585 63.0672 15.6532 63.0752 15.6486 63.0837L15.6743 63.0566L15.6647 63.0598ZM29.7005 107.512C28.8982 105.865 28.08 104.226 27.2617 102.58C23.1479 94.3148 19.0297 86.0488 14.9074 77.7817C13.9992 75.952 13.0852 74.1191 12.1653 72.2831C12.0307 72.0096 11.8154 71.7832 11.5481 71.6337C11.2808 71.4843 10.974 71.4189 10.6684 71.4462C9.86614 71.5242 9.28051 71.8217 9.10081 72.1956C8.93556 72.5105 8.89328 72.8747 8.98209 73.2186C9.00117 73.2732 9.02423 73.3264 9.05108 73.3777C9.64954 74.7174 10.2159 76.0825 10.7935 77.4253C15.4069 88.1839 20.017 98.9426 24.624 109.701C24.7647 110.058 25.003 110.369 25.3123 110.599C26.2124 111.259 27.09 111.946 27.9757 112.621C28.5051 113.023 29.0378 113.416 29.6202 113.86C29.6469 113.735 29.6661 113.609 29.678 113.481C29.7582 111.757 29.8481 110.032 29.9026 108.306C29.8971 108.029 29.8279 107.758 29.7005 107.512Z" fill="#EAE4DF"/>
<path d="M40.7022 114.27C39.0875 118.373 36.3965 121.974 32.9078 124.7C32.9607 124.577 33.0105 124.452 33.0586 124.323C33.1356 124.125 33.219 123.928 33.2864 123.724C33.3072 123.677 33.3254 123.628 33.341 123.578C33.3827 123.479 33.4164 123.381 33.4565 123.282C33.5223 123.091 33.5913 122.905 33.6603 122.711C33.6843 122.639 33.7084 122.565 33.7325 122.49C33.7758 122.37 33.8143 122.245 33.856 122.119C33.8785 122.057 33.9025 121.992 33.9202 121.925C34.0165 121.642 34.1095 121.349 34.1978 121.053C34.2812 120.792 34.3603 120.524 34.4352 120.248C34.4529 120.192 34.4689 120.135 34.4834 120.078C34.5748 119.788 34.6438 119.492 34.7304 119.19C34.8171 118.888 34.9085 118.539 34.9936 118.2C34.9936 118.2 34.9936 118.18 34.9936 118.17C34.994 118.162 34.994 118.153 34.9936 118.145C35.0144 118.063 35.0417 117.973 35.061 117.887C35.1155 117.663 35.1717 117.421 35.2294 117.19C35.2396 117.136 35.2525 117.083 35.2679 117.031C35.2679 117.021 35.2679 117.007 35.2679 116.994C35.5619 115.649 35.7444 114.283 35.8134 112.909C35.8648 111.984 35.8536 111.201 35.8375 110.487C35.8389 110.486 35.84 110.484 35.8408 110.482C35.8416 110.48 35.842 110.479 35.842 110.477C35.842 110.475 35.8416 110.473 35.8408 110.471C35.84 110.469 35.8389 110.468 35.8375 110.466C35.8375 110.161 35.8231 109.868 35.8167 109.585C35.7852 108.743 35.8276 107.899 35.9434 107.065C36.1142 106.044 36.4056 105.047 36.8114 104.094C37.3876 102.619 38.1534 101.223 39.0898 99.9415C39.1603 99.8493 39.2293 99.757 39.2983 99.6599C39.4427 99.469 39.5903 99.2781 39.7444 99.0872C40.1391 98.6098 40.5707 98.115 41.0584 97.625C41.7515 99.6902 43.7138 106.533 40.7022 114.27Z" fill="#EAE4DF"/>
<path d="M35.8695 4.38966L28.9575 5.91707C29.004 5.86775 29.0538 5.82162 29.1035 5.77548C29.1533 5.72934 29.1998 5.68478 29.2495 5.64501C29.3458 5.5575 29.4437 5.47316 29.5464 5.39361C29.5945 5.35384 29.6474 5.31565 29.6972 5.27747C29.7983 5.19792 29.9009 5.11838 30.0052 5.05315C30.0534 5.01814 30.1063 4.98312 30.1577 4.94811C30.9486 4.41352 31.7766 3.99351 32.5339 3.41914C31.8921 3.46847 31.2503 3.51461 30.3871 3.57825C30.9936 2.91638 31.491 2.37222 32.0766 1.72944L30.9085 1.59582C30.9278 1.54172 30.9503 1.48763 30.9743 1.43671C30.9905 1.39836 31.0092 1.36112 31.0305 1.32531C31.0468 1.28728 31.0661 1.25059 31.0882 1.21554L31.146 1.12169C31.1488 1.11444 31.1531 1.10789 31.1588 1.10258C31.1973 1.04212 31.2423 0.984828 31.2856 0.92755C31.3542 0.838424 31.4316 0.756373 31.5166 0.682563C31.6439 0.562133 31.7838 0.455464 31.9338 0.364354C31.9691 0.34208 32.0076 0.321371 32.0461 0.299097C32.0846 0.276822 32.1231 0.256156 32.1616 0.237063C32.2418 0.195696 32.3221 0.157513 32.4007 0.119328C32.4938 0.077961 32.5868 0.038185 32.6831 0C34.0533 0.426399 34.8106 1.45738 35.3336 2.69044C35.5647 3.23616 35.693 3.82165 35.8695 4.38966Z" fill="#EAE4DF"/>
<path d="M37.4627 11.9074C37.5189 12.2256 37.6232 12.5279 37.6232 12.835C37.5873 13.1619 37.5201 13.4848 37.4226 13.7992C37.0167 13.5844 36.6076 13.3743 36.2 13.1548C36.1199 13.1108 36.0422 13.0625 35.9674 13.01L35.8904 12.9527C35.8168 12.8982 35.7486 12.8369 35.6866 12.7698C35.6562 12.742 35.6278 12.7122 35.6016 12.6807C35.5695 12.6441 35.539 12.6091 35.5117 12.5709C35.4935 12.5497 35.4774 12.5267 35.4636 12.5024C35.4349 12.4661 35.4097 12.4272 35.3882 12.3863C35.3515 12.3245 35.3183 12.2608 35.2887 12.1954C35.2576 12.1296 35.2302 12.0622 35.2069 11.9933C35.1543 11.852 35.1156 11.706 35.0913 11.5574C35.0721 11.454 35.0577 11.3489 35.0448 11.2392C35.0244 11.0786 34.9949 10.9192 34.9566 10.7618C34.9405 10.6855 34.9181 10.6123 34.8956 10.5391C34.8731 10.4659 34.8539 10.4087 34.833 10.3482L34.8138 10.3021C34.7924 10.2435 34.7677 10.1861 34.74 10.1302C34.741 10.1266 34.741 10.1227 34.74 10.1191C34.7095 10.057 34.679 9.99657 34.6437 9.9377C34.6117 9.87781 34.5752 9.82036 34.5346 9.76585C34.4551 9.65063 34.3637 9.54398 34.2618 9.44765C34.2115 9.39901 34.1579 9.35385 34.1014 9.31243C33.8625 9.12881 33.5901 8.99267 33.2992 8.91148C33.2222 8.88762 33.1387 8.8685 33.0601 8.84941C32.9783 8.83032 32.89 8.81599 32.8018 8.80327C32.6776 8.75617 32.5604 8.69248 32.4536 8.61394C33.2863 7.96639 34.2057 7.65932 35.1507 7.42703L35.324 7.38885C35.4236 7.3679 35.5243 7.35249 35.6256 7.3427C35.7293 7.33153 35.834 7.33421 35.9369 7.35066C35.9581 7.35374 35.979 7.35855 35.9995 7.365C36.0183 7.36582 36.0368 7.37011 36.054 7.3777C36.0733 7.3777 36.0925 7.38885 36.1118 7.39681C36.2307 7.44547 36.337 7.51994 36.423 7.61476C36.4616 7.65931 36.5001 7.70548 36.5386 7.75957C36.5771 7.81367 36.6124 7.87092 36.6509 7.93616C36.6894 8.00139 36.7247 8.073 36.7632 8.14937V8.16211L36.8129 8.2687C36.8354 8.31484 36.8547 8.36414 36.8739 8.41028C36.9124 8.50893 36.9445 8.60918 36.9878 8.70146C37.0045 8.74088 37.0238 8.77915 37.0456 8.81601C37.0592 8.83963 37.0742 8.86246 37.0905 8.88441C37.107 8.90986 37.1264 8.93338 37.1483 8.95445C37.2147 9.03229 37.3038 9.08786 37.4034 9.11355C37.4296 9.12365 37.4572 9.13006 37.4852 9.13262C37.5205 9.14082 37.5565 9.14563 37.5927 9.14696L37.9553 10.065C37.4066 10.1795 37.044 10.5169 36.7247 11.0674L37.4627 11.9074Z" fill="#EAE4DF"/>
<path d="M38.0852 8.27878C37.8253 8.04172 37.5718 7.80148 37.3022 7.56759C37.1852 7.47497 37.0743 7.37505 36.9701 7.26846C36.9207 7.21631 36.8777 7.15863 36.8417 7.09661C36.8067 7.03358 36.7844 6.96446 36.776 6.89299C36.7744 6.86756 36.7744 6.84202 36.776 6.81659C36.777 6.77277 36.7819 6.72916 36.7904 6.68615C36.8016 6.63699 36.816 6.58859 36.8337 6.54134C36.8671 6.45387 36.9108 6.3706 36.9637 6.29317L37.023 6.20406L33.3023 6.95503C33.627 6.72154 33.9692 6.51305 34.326 6.33135C34.4607 6.25817 34.5987 6.19612 34.7335 6.13566L34.9629 6.04018C35.0399 6.00677 35.1234 5.97971 35.1972 5.95267C35.396 5.88183 35.5985 5.8213 35.8036 5.7713L35.9801 5.72994C36.0764 5.70766 36.1727 5.68855 36.2689 5.67583C36.3729 5.6621 36.4755 5.63921 36.5754 5.60742L36.6283 5.62016L37.9215 7.24302C38.0112 7.35284 38.1099 7.45502 38.2168 7.54848C38.4751 7.78873 38.5537 8.0274 38.0852 8.27878Z" fill="#EAE4DF"/>
<path d="M38.9067 46.8333L38.9976 46.2637L38.9067 46.8333Z" fill="#EAE4DF"/>
<path d="M16.2132 64.2695L16.1829 64.2997C16.1829 64.2997 16.1988 64.2727 16.202 64.2727L16.2132 64.2695Z" fill="#EAE4DF"/>
<path d="M37.4628 11.906C37.2205 11.6307 36.9814 11.3539 36.7311 11.0723C37.052 10.5218 37.4114 10.1829 37.9618 10.0684C37.9874 10.5043 37.3392 10.455 37.7853 11.3205C37.8222 11.3682 37.8206 11.6864 37.4628 11.906Z" fill="#EAE4DF"/>
<path d="M18.2381 67.6863C15.2067 68.2816 12.2584 69.2362 9.45687 70.5295C7.49074 71.4375 5.60478 72.5072 3.8188 73.7275C3.17701 74.1602 2.59941 74.5882 2.06993 75.0003C1.99453 75.0608 1.92072 75.1149 1.84691 75.1737C1.36558 74.1348 0.908314 73.1563 0.412537 72.0903L5.90781 69.586C6.81272 69.1766 7.71817 68.765 8.62415 68.3514C9.53014 67.9377 10.4393 67.5245 11.3517 67.1119C12.2577 66.6972 13.1669 66.2819 14.0793 65.8661C14.9917 65.4504 15.9068 65.034 16.8245 64.6172L18.2381 67.6863Z" fill="#EAE4DF"/>
<path d="M39.2166 48.1237C38.9599 50.7977 38.4889 53.4472 37.8079 56.047C37.0473 59.63 36.72 66.7468 36.8452 68.9933C36.8644 69.3593 36.1392 69.5486 36.0767 69.5772C31.8152 71.3878 29.5497 75.5277 26.498 78.6907C28.2068 71.9686 34.7883 68.018 36.3671 61.2641C35.9611 61.8702 35.3177 62.7978 34.4562 63.8781C32.2998 66.5829 30.2332 68.4142 28.725 69.7427C28.072 70.3171 27.1623 71.0935 26.0343 71.9702C26.22 71.5381 26.4344 71.1187 26.6761 70.7148V70.7037C26.8141 70.4857 26.9521 70.2646 27.0885 70.0434C27.1655 69.9161 27.2489 69.7889 27.3243 69.66C29.9155 65.6824 33.6539 61.6602 33.7037 56.6898C30.7113 63.1399 25.922 67.9162 19.8588 71.5469C22.0152 65.0682 25.845 59.6014 30.4643 54.2985C28.5287 55.1246 26.6594 56.0959 24.8727 57.2037C22.7015 58.5524 20.6606 60.097 18.7758 61.8177C20.4508 59.6571 22.251 57.1401 24.7556 54.9429C27.0403 52.935 29.4518 51.048 31.4943 48.7617C31.1814 48.4164 30.6728 49.1435 30.291 49.2533C28.5036 50.0647 26.8029 50.8348 24.693 51.3471C27.9693 46.7474 32.4217 43.2471 36.8067 39.7325C36.9992 39.5845 37.1885 39.435 37.3811 39.2886C37.4661 39.2202 37.5415 39.1438 37.633 39.0786C37.7244 39.0134 37.7934 38.9386 37.8769 38.8797C38.0786 38.7405 38.3105 38.6506 38.5539 38.6172C38.732 38.6283 38.9599 39.1661 39.1348 40.178C39.4171 41.7579 39.5664 44.469 39.2166 48.1237Z" fill="#EAE4DF"/>
<path d="M39.3192 77.1306C33.1901 80.2602 28.5356 84.8631 24.778 90.5256C24.8903 89.8892 24.9609 89.2289 25.1213 88.5973C26.6119 82.7693 29.4004 77.6334 33.5704 73.2549C34.1985 72.6287 34.8674 72.0441 35.5728 71.5047C36.0439 71.0908 36.536 70.7011 37.0473 70.3369C37.9377 72.698 38.6645 74.8937 39.2614 76.9286L39.3192 77.1306Z" fill="#EAE4DF"/>
<path d="M41.3149 86.1944C38.1846 87.7409 35.7459 90.1195 33.2926 92.4647C32.2931 93.4193 31.3448 94.4312 30.3725 95.4177C30.2121 95.4065 30.0661 95.3954 29.912 95.3874C31.2823 92.2515 33.222 89.4608 35.2068 86.6908C36.0282 85.5357 36.8882 84.4045 37.652 83.2128C38.4542 81.9702 39.1601 80.6671 39.9399 79.3418C40.187 80.2964 40.4041 81.2118 40.5913 82.0879C40.901 83.5724 41.14 84.9391 41.3149 86.1944Z" fill="#EAE4DF"/>
<path d="M41.7498 92.5172C41.7434 92.9712 41.7279 93.3955 41.7033 93.7901C41.7033 93.7901 41.676 94.2531 41.6391 94.6381C41.6263 94.7733 41.6102 94.9133 41.591 95.0549C38.151 95.7057 35.4347 97.7709 32.606 99.6308C34.5314 95.3875 37.4739 92.0606 41.684 89.6836C41.7434 90.7353 41.7627 91.6804 41.7498 92.5172Z" fill="#EAE4DF"/>
<path d="M43.5275 32.6677C43.6095 32.944 43.6294 33.2347 43.5859 33.5195C43.5424 33.8043 43.4364 34.0762 43.2756 34.316C43.0215 34.6891 42.7266 35.0333 42.3963 35.3422C41.548 36.1236 40.4996 36.6591 39.3655 36.8903C39.5917 36.3191 40.0169 34.9969 39.5741 33.4998C39.4573 33.1058 39.2901 32.7284 39.0767 32.3765C38.9949 32.3638 38.9163 32.359 38.836 32.3495C38.2504 34.4178 37.2476 36.1791 35.3576 37.2992C33.4675 38.4193 31.4058 38.6213 29.0504 38.4129C29.4307 38.1997 29.6457 38.0629 29.8703 37.9547C31.0047 37.4169 32.0989 36.8314 32.9637 35.907C33.7178 35.1115 34.2473 34.2126 34.0162 32.9302C31.3994 32.0599 28.6076 32.1744 25.673 31.834C28.0252 30.5118 30.4367 30.3781 32.8209 30.0552C29.612 29.3853 26.3389 29.2867 23.0963 28.8348C25.4901 27.8993 28.0284 27.7529 30.5394 27.3822C27.9369 26.8031 25.3056 26.7999 22.6775 26.7251C24.4424 26.0187 26.3405 25.99 28.1551 25.5891C28.1551 25.5048 28.1455 25.4189 28.1423 25.3282C26.2383 25.203 24.3322 25.0789 22.424 24.9559C25.7645 23.8421 29.2093 23.4365 32.8177 23.0817C31.3593 20.5551 29.9425 18.1033 28.5258 15.6562C29.1739 16.0466 29.8857 16.3217 30.6292 16.4693C31.2647 16.6102 31.9217 16.6286 32.5642 16.5234C32.5865 17.1468 32.646 17.7684 32.7423 18.3849C32.7423 18.3849 32.7423 18.3849 32.7423 18.3944C32.776 18.6029 32.8113 18.8208 32.8578 19.0515C32.8586 19.0547 32.8586 19.058 32.8578 19.0611C32.9011 19.2727 32.9493 19.4907 33.0054 19.715L33.1209 19.8057C33.1209 19.8057 38.897 24.3402 41.9551 29.1674C42.1975 29.5451 42.4203 29.9349 42.6226 30.3352C42.9971 31.0829 43.3 31.8638 43.5275 32.6677Z" fill="#EAE4DF"/>
</svg>
