<svg width="326" height="422" viewBox="0 0 326 422" fill="none" xmlns="http://www.w3.org/2000/svg">
  <path d="M325 162.654V259.631C325 336.948 270.582 401.601 197.853 417.504C197.51 417.589 197.162 417.66 196.815 417.735C195.303 418.067 193.751 418.374 192.199 418.64C190.98 418.871 189.756 419.077 188.521 419.268C188.335 419.309 188.143 419.334 187.957 419.364C186.123 419.651 184.268 419.897 182.414 420.123C175.976 420.89 169.499 421.276 163.015 421.28C155.685 421.272 148.364 420.768 141.102 419.771C140.139 419.661 139.192 419.525 138.23 419.374C106.183 414.454 76.3654 400.012 52.6672 377.93C52.511 377.794 52.3598 377.653 52.2036 377.508C46.1014 371.805 40.4512 365.639 35.3038 359.065C13.0253 330.689 0.944769 295.668 1.00019 259.62V162.644C1.00019 73.3754 73.5577 1.00013 163.015 1.00013C184.295 0.973314 205.37 5.14338 225.029 13.2705C244.689 21.3976 262.544 33.3215 277.57 48.357C292.632 63.3512 304.577 81.1678 312.716 100.783C320.856 120.398 325.03 141.424 325 162.654Z" fill="#2A3770"/>
  <path d="M128.968 225.331C128.949 225.355 128.932 225.38 128.918 225.407L128.999 225.321L128.968 225.331ZM173.047 365.803C170.528 360.599 167.958 355.421 165.388 350.217C152.469 324.099 139.536 297.978 126.59 271.854C123.738 266.072 120.868 260.28 117.979 254.478C117.556 253.613 116.88 252.898 116.041 252.426C115.201 251.953 114.238 251.747 113.278 251.833C110.759 252.079 108.919 253.02 108.355 254.201C107.836 255.196 107.703 256.347 107.982 257.434C108.042 257.606 108.115 257.775 108.199 257.937C110.078 262.17 111.857 266.484 113.671 270.727C128.159 304.725 142.637 338.724 157.105 372.722C157.546 373.849 158.295 374.831 159.266 375.557C162.093 377.644 164.849 379.816 167.631 381.948C169.293 383.22 170.966 384.461 172.795 385.864C172.879 385.469 172.939 385.07 172.977 384.668C173.229 379.217 173.511 373.767 173.682 368.312C173.665 367.439 173.448 366.58 173.047 365.803V365.803Z" fill="#EAE4DF"/>
  <path d="M207.598 387.161C202.527 400.127 194.076 411.505 183.12 420.119C183.287 419.732 183.443 419.334 183.594 418.927C183.836 418.304 184.098 417.68 184.309 417.037C184.375 416.886 184.432 416.731 184.481 416.574C184.612 416.262 184.718 415.951 184.843 415.639C185.05 415.036 185.267 414.447 185.483 413.834C185.559 413.608 185.635 413.371 185.71 413.135C185.846 412.758 185.967 412.361 186.098 411.964C186.169 411.768 186.244 411.561 186.3 411.35C186.602 410.455 186.894 409.53 187.171 408.595C187.433 407.77 187.682 406.922 187.917 406.051C187.973 405.875 188.023 405.694 188.068 405.513C188.355 404.598 188.572 403.663 188.844 402.707C189.116 401.752 189.404 400.651 189.671 399.58C189.671 399.58 189.671 399.515 189.671 399.485C189.672 399.458 189.672 399.431 189.671 399.404C189.736 399.148 189.822 398.861 189.882 398.59C190.054 397.881 190.23 397.117 190.411 396.387C190.443 396.218 190.484 396.05 190.532 395.885C190.532 395.855 190.532 395.809 190.532 395.769C191.456 391.519 192.028 387.201 192.245 382.858C192.407 379.936 192.371 377.463 192.321 375.205C192.325 375.201 192.329 375.196 192.331 375.19C192.334 375.185 192.335 375.179 192.335 375.173C192.335 375.167 192.334 375.16 192.331 375.155C192.329 375.149 192.325 375.144 192.321 375.14C192.321 374.175 192.276 373.25 192.255 372.355C192.157 369.693 192.29 367.029 192.653 364.391C193.19 361.166 194.105 358.015 195.379 355.004C197.189 350.341 199.594 345.93 202.534 341.881C202.756 341.589 202.973 341.298 203.189 340.991C203.643 340.388 204.106 339.784 204.59 339.181C205.83 337.673 207.185 336.109 208.717 334.561C210.894 341.087 217.056 362.711 207.598 387.161Z" fill="#EAE4DF"/>
  <path d="M192.422 39.9302L170.715 44.757C170.861 44.6011 171.017 44.4554 171.173 44.3096C171.33 44.1638 171.476 44.0229 171.632 43.8972C171.934 43.6207 172.242 43.3542 172.564 43.1028C172.715 42.9771 172.881 42.8565 173.038 42.7358C173.355 42.4844 173.678 42.2331 174.005 42.0269C174.156 41.9163 174.323 41.8056 174.484 41.695C176.968 40.0057 179.568 38.6784 181.946 36.8633C179.931 37.0192 177.915 37.165 175.204 37.3661C177.109 35.2746 178.671 33.555 180.51 31.5238L176.842 31.1015C176.902 30.9306 176.973 30.7596 177.049 30.5987C177.099 30.4775 177.158 30.3598 177.225 30.2467C177.276 30.1265 177.337 30.0105 177.406 29.8998L177.588 29.6032C177.596 29.5803 177.61 29.5596 177.628 29.5428C177.749 29.3518 177.89 29.1707 178.026 28.9897C178.241 28.7081 178.484 28.4488 178.752 28.2155C179.151 27.835 179.59 27.4979 180.062 27.21C180.173 27.1396 180.293 27.0742 180.414 27.0038C180.535 26.9334 180.656 26.8681 180.777 26.8077C181.029 26.677 181.281 26.5563 181.528 26.4357C181.82 26.305 182.112 26.1793 182.415 26.0586C186.718 27.406 189.096 30.664 190.739 34.5606C191.464 36.2851 191.867 38.1353 192.422 39.9302Z" fill="#EAE4DF"/>
  <path d="M197.425 63.6873C197.601 64.6929 197.928 65.6482 197.928 66.6186C197.816 67.6518 197.605 68.672 197.299 69.6655C196.024 68.9867 194.739 68.323 193.459 67.6292C193.207 67.4901 192.963 67.3374 192.728 67.1717L192.487 66.9907C192.256 66.8183 192.041 66.6247 191.847 66.4125C191.751 66.3248 191.662 66.2307 191.58 66.1309C191.479 66.0153 191.383 65.9047 191.297 65.784C191.24 65.7169 191.19 65.6445 191.146 65.5677C191.056 65.4529 190.977 65.33 190.909 65.2007C190.794 65.0055 190.69 64.8041 190.597 64.5974C190.499 64.3896 190.413 64.1764 190.34 63.9589C190.175 63.5124 190.053 63.0511 189.977 62.5813C189.917 62.2544 189.871 61.9226 189.831 61.5757C189.767 61.0682 189.674 60.5646 189.554 60.0673C189.504 59.826 189.433 59.5948 189.363 59.3635C189.292 59.1322 189.232 58.9512 189.166 58.7602L189.106 58.6144C189.038 58.4292 188.961 58.2479 188.874 58.0713C188.877 58.0598 188.877 58.0476 188.874 58.0361C188.778 57.84 188.682 57.649 188.571 57.463C188.471 57.2737 188.356 57.0922 188.229 56.9199C187.979 56.5558 187.692 56.2188 187.372 55.9144C187.214 55.7607 187.046 55.618 186.868 55.4871C186.118 54.9068 185.263 54.4766 184.349 54.2201C184.107 54.1446 183.845 54.0842 183.598 54.0239C183.341 53.9636 183.064 53.9183 182.787 53.8781C182.397 53.7293 182.029 53.528 181.694 53.2798C184.309 51.2335 187.196 50.2631 190.164 49.5291L190.708 49.4084C191.021 49.3422 191.337 49.2935 191.655 49.2626C191.981 49.2273 192.309 49.2358 192.633 49.2877C192.699 49.2975 192.765 49.3127 192.829 49.333C192.888 49.3357 192.946 49.3492 193 49.3732C193.061 49.3732 193.121 49.4084 193.182 49.4336C193.555 49.5873 193.889 49.8227 194.159 50.1223C194.28 50.2631 194.401 50.409 194.522 50.5799C194.643 50.7509 194.754 50.9318 194.875 51.1379C194.996 51.3441 195.107 51.5704 195.228 51.8117V51.852L195.384 52.1888C195.454 52.3346 195.515 52.4904 195.575 52.6362C195.696 52.9479 195.797 53.2647 195.933 53.5564C195.985 53.6809 196.046 53.8019 196.114 53.9183C196.157 53.993 196.204 54.0651 196.256 54.1345C196.307 54.2149 196.368 54.2893 196.437 54.3558C196.646 54.6018 196.925 54.7774 197.238 54.8586C197.321 54.8905 197.407 54.9108 197.495 54.9189C197.606 54.9448 197.719 54.96 197.833 54.9642L198.971 57.8652C197.248 58.2272 196.109 59.2931 195.107 61.0328L197.425 63.6873Z" fill="#EAE4DF"/>
  <path d="M199.38 52.2191C198.563 51.4699 197.767 50.7107 196.921 49.9716C196.553 49.6789 196.205 49.3632 195.878 49.0263C195.723 48.8615 195.587 48.6793 195.475 48.4833C195.365 48.2841 195.294 48.0657 195.268 47.8399C195.263 47.7595 195.263 47.6788 195.268 47.5984C195.271 47.4599 195.287 47.3221 195.313 47.1862C195.348 47.0308 195.394 46.8779 195.449 46.7286C195.554 46.4522 195.691 46.1891 195.857 45.9444L196.044 45.6628L184.359 48.0359C185.379 47.2981 186.453 46.6392 187.574 46.065C187.997 45.8337 188.43 45.6377 188.854 45.4466L189.574 45.1449C189.816 45.0393 190.078 44.9538 190.31 44.8683C190.934 44.6445 191.57 44.4532 192.214 44.2952L192.769 44.1645C193.071 44.0941 193.373 44.0337 193.676 43.9935C194.002 43.9501 194.324 43.8778 194.638 43.7773L194.804 43.8176L198.866 48.9459C199.147 49.293 199.457 49.6159 199.793 49.9112C200.604 50.6704 200.851 51.4247 199.38 52.2191Z" fill="#EAE4DF"/>
  <path d="M201.96 174.058L202.247 172.258L201.96 174.058Z" fill="#EAE4DF"/>
  <path d="M130.692 229.156L130.596 229.252C130.596 229.252 130.646 229.166 130.656 229.166L130.692 229.156Z" fill="#EAE4DF"/>
  <path d="M197.424 63.683C196.664 62.8132 195.913 61.9383 195.127 61.0484C196.134 59.3088 197.263 58.238 198.991 57.876C199.072 59.2536 197.036 59.0977 198.437 61.8328C198.553 61.9836 198.548 62.9892 197.424 63.683Z" fill="#EAE4DF"/>
  <path d="M137.05 239.952C127.53 241.833 118.272 244.849 109.473 248.936C103.299 251.805 97.3762 255.186 91.7674 259.042V259.042C89.7519 260.41 87.9379 261.762 86.2752 263.064C86.0383 263.255 85.8066 263.426 85.5748 263.612C84.0632 260.329 82.6272 257.237 81.0702 253.869L98.3278 245.955C101.17 244.661 104.013 243.36 106.858 242.053C109.704 240.746 112.559 239.44 115.424 238.136C118.269 236.826 121.125 235.514 123.99 234.2C126.855 232.886 129.729 231.57 132.611 230.253L137.05 239.952Z" fill="#EAE4DF"/>
  <path d="M202.932 178.135C202.126 186.585 200.647 194.958 198.508 203.173C196.12 214.496 195.092 236.985 195.485 244.085C195.546 245.241 193.268 245.839 193.072 245.93C179.689 251.652 172.574 264.734 162.99 274.729C168.357 253.487 189.025 241.003 193.984 219.66C192.709 221.575 190.688 224.506 187.982 227.92C181.21 236.468 174.721 242.255 169.984 246.453C167.933 248.268 165.076 250.721 161.534 253.492C162.117 252.126 162.791 250.801 163.55 249.525V249.49C163.983 248.801 164.416 248.102 164.845 247.403C165.086 247.001 165.349 246.599 165.585 246.191C173.723 233.622 185.463 220.911 185.619 205.205C176.222 225.587 161.181 240.681 142.14 252.154C148.912 231.681 160.94 214.405 175.446 197.648C169.368 200.259 163.497 203.328 157.886 206.829C151.068 211.091 144.658 215.971 138.739 221.409C143.999 214.581 149.653 206.627 157.518 199.684C164.693 193.339 172.267 187.376 178.681 180.151C177.698 179.06 176.101 181.358 174.902 181.705C169.289 184.269 163.948 186.702 157.322 188.321C167.611 173.786 181.593 162.725 195.364 151.618C195.969 151.151 196.563 150.678 197.168 150.215C197.435 149.999 197.672 149.758 197.959 149.552C198.246 149.346 198.463 149.109 198.725 148.923C199.358 148.484 200.087 148.199 200.851 148.094C201.411 148.129 202.126 149.828 202.675 153.026C203.562 158.019 204.031 166.586 202.932 178.135Z" fill="#EAE4DF"/>
  <path d="M203.254 269.797C184.006 279.687 169.389 294.232 157.588 312.126C157.941 310.115 158.163 308.028 158.666 306.032C163.347 287.615 172.105 271.386 185.2 257.549C187.173 255.57 189.274 253.723 191.489 252.019C192.968 250.711 194.514 249.479 196.119 248.328C198.916 255.789 201.198 262.728 203.073 269.158L203.254 269.797Z" fill="#EAE4DF"/>
  <path d="M209.522 298.44C199.692 303.327 192.033 310.844 184.328 318.255C181.189 321.271 178.211 324.469 175.158 327.586C174.654 327.551 174.196 327.516 173.712 327.491C178.015 317.581 184.107 308.762 190.34 300.009C192.919 296.358 195.62 292.784 198.019 289.018C200.538 285.091 202.755 280.973 205.204 276.785C205.98 279.802 206.662 282.695 207.25 285.463C208.222 290.154 208.973 294.473 209.522 298.44Z" fill="#EAE4DF"/>
  <path d="M210.888 318.42C210.868 319.855 210.819 321.196 210.742 322.443C210.742 322.443 210.656 323.906 210.54 325.122C210.5 325.55 210.449 325.992 210.389 326.44C199.586 328.496 191.055 335.022 182.172 340.9C188.219 327.491 197.46 316.977 210.681 309.466C210.868 312.789 210.928 315.776 210.888 318.42Z" fill="#EAE4DF"/>
  <path d="M216.471 129.29C216.728 130.163 216.791 131.082 216.654 131.982C216.517 132.881 216.185 133.741 215.68 134.498C214.882 135.677 213.956 136.765 212.918 137.741C210.254 140.211 206.962 141.903 203.4 142.633C204.111 140.828 205.446 136.65 204.055 131.919C203.688 130.674 203.163 129.481 202.493 128.37C202.236 128.329 201.989 128.314 201.737 128.284C199.898 134.82 196.749 140.386 190.813 143.926C184.878 147.465 178.403 148.104 171.006 147.445C172.2 146.771 172.876 146.339 173.581 145.997C177.143 144.298 180.58 142.447 183.296 139.526C185.664 137.012 187.327 134.172 186.601 130.119C178.383 127.369 169.616 127.731 160.4 126.655C167.786 122.477 175.36 122.055 182.847 121.034C172.77 118.917 162.491 118.605 152.308 117.178C159.825 114.221 167.797 113.759 175.682 112.587C167.509 110.757 159.246 110.747 150.992 110.511C156.535 108.278 162.496 108.188 168.195 106.921C168.195 106.654 168.164 106.383 168.154 106.096C162.175 105.701 156.189 105.309 150.196 104.92C160.687 101.4 171.505 100.118 182.837 98.9971C178.257 91.0129 173.808 83.265 169.359 75.5322C171.394 76.7657 173.629 77.6352 175.964 78.1015C177.96 78.5469 180.023 78.6048 182.041 78.2724C182.111 80.2425 182.298 82.2069 182.6 84.155C182.6 84.155 182.6 84.1549 182.6 84.1851C182.706 84.8437 182.817 85.5326 182.963 86.2616C182.965 86.2715 182.965 86.2819 182.963 86.2918C183.099 86.9605 183.25 87.6492 183.427 88.3582L183.789 88.6448C183.789 88.6448 201.929 102.974 211.533 118.228C212.294 119.422 212.994 120.654 213.629 121.919C214.805 124.282 215.756 126.749 216.471 129.29V129.29Z" fill="#EAE4DF"/>
  </svg>
  