<svg width="442" height="21" viewBox="0 0 442 21" fill="none" xmlns="http://www.w3.org/2000/svg">
  <path d="M17.3855 4.6566C17.3914 4.54204 17.3666 4.42795 17.3136 4.32613C17.2607 4.22432 17.1815 4.13842 17.0842 4.07728C16.7619 3.92193 16.4041 3.85481 16.0472 3.88274H4.63116V8.24291H11.5357C11.9106 8.26013 12.2845 8.19363 12.6303 8.04831C12.8874 7.92007 13.0159 7.60609 13.0159 7.04449H13.6497V12.5323H13.0159C13.0159 11.9928 12.8874 11.6479 12.6303 11.4931C12.2912 11.3243 11.9143 11.2452 11.5357 11.2632H4.63116V16.1275H16.3973C16.7116 16.1472 17.0236 16.0616 17.2836 15.8843C17.3897 15.8088 17.4756 15.7083 17.5336 15.5919C17.5915 15.4754 17.6198 15.3465 17.616 15.2165H18.2542V20.0322H17.616C17.616 19.6784 17.5052 19.4794 17.2836 19.4352C16.9915 19.3802 16.6944 19.3565 16.3973 19.3645H0V18.7321C0.162176 18.7344 0.319662 18.6778 0.44317 18.5729C0.509545 18.514 0.561615 18.4407 0.595401 18.3588C0.629187 18.2768 0.64383 18.1882 0.638193 18.0997V2.14926C0.644519 2.06007 0.630238 1.97064 0.596429 1.88783C0.56262 1.80503 0.510159 1.73108 0.44317 1.6717C0.318251 1.56976 0.161357 1.51493 0 1.51688V0.884551H16.0649C16.426 0.915485 16.788 0.835222 17.102 0.654594C17.1982 0.583998 17.2758 0.49124 17.3283 0.384205C17.3807 0.27717 17.4065 0.159031 17.4033 0.039917H18.037V4.67868L17.3855 4.6566Z" fill="#1D1D1B"/>
  <path d="M34.3633 13.5494L34.7178 13.7263C34.7147 13.9227 34.7636 14.1164 34.8596 14.2879C35.1051 14.6418 35.4378 14.9266 35.8258 15.1148C36.3552 15.4048 36.91 15.646 37.4832 15.8356C38.1216 16.0518 38.7747 16.2218 39.4376 16.3442C40.0404 16.4648 40.6531 16.53 41.2679 16.5388C41.6711 16.5388 42.1852 16.5078 42.819 16.4503C43.4533 16.3921 44.08 16.2692 44.6892 16.0833C45.256 15.9149 45.7907 15.6534 46.2713 15.3094C46.4821 15.165 46.6536 14.9706 46.7704 14.7437C46.8872 14.5167 46.9457 14.2644 46.9405 14.0093C46.9543 13.7728 46.9045 13.5371 46.7962 13.3263C46.6879 13.1156 46.525 12.9376 46.3244 12.8109C45.8256 12.5236 45.2767 12.3331 44.7069 12.2493C43.9488 12.1239 43.1836 12.0471 42.4157 12.0193C41.556 11.984 40.6814 11.9324 39.7921 11.8646C38.9103 11.7947 38.033 11.6766 37.1641 11.5108C36.3603 11.3667 35.5871 11.0871 34.8774 10.6839C34.2119 10.3027 33.6539 9.75955 33.2554 9.10518C32.8112 8.30464 32.598 7.397 32.6394 6.4829C32.6445 5.74632 32.8173 5.0205 33.1446 4.36026C33.5132 3.62504 34.0508 2.98716 34.7134 2.49857C35.5162 1.90618 36.4158 1.45731 37.3724 1.17194C38.6082 0.810648 39.8918 0.639158 41.1792 0.663383C42.2657 0.649499 43.3508 0.742819 44.4188 0.941978C45.3362 1.13213 46.125 1.33111 46.7987 1.53895C47.4723 1.74679 48.0307 1.9502 48.4871 2.14035C48.8474 2.30375 49.2352 2.39825 49.6305 2.41895C49.7562 2.43171 49.8831 2.41954 50.0041 2.3831C50.125 2.34667 50.2375 2.28672 50.3352 2.2067L50.7783 2.48972L48.3453 6.88527L47.9952 6.74379C47.9616 6.45648 47.8647 6.18017 47.7116 5.93456C47.4637 5.59615 47.1464 5.31421 46.7809 5.10757C46.2956 4.81616 45.7818 4.5747 45.2476 4.38682C44.6277 4.16934 43.9921 3.99932 43.3464 3.87827C42.6714 3.75 41.986 3.68483 41.2989 3.68367C40.7633 3.68667 40.2287 3.72806 39.6991 3.8075C39.1885 3.88048 38.6866 4.00493 38.2012 4.17894C37.7914 4.32111 37.4135 4.54199 37.0888 4.82903C36.948 4.95465 36.8357 5.10874 36.7593 5.28107C36.6829 5.45339 36.6441 5.63994 36.6456 5.82838C36.6294 6.07442 36.6776 6.32045 36.7856 6.54222C36.8936 6.76399 37.0577 6.95388 37.2616 7.09315C37.7555 7.40901 38.3065 7.62531 38.8836 7.72991C39.6392 7.88 40.4052 7.97312 41.1748 8.0085C42.0287 8.05567 42.9032 8.11464 43.7984 8.1854C44.6795 8.25533 45.5555 8.37787 46.4219 8.55241C47.2259 8.71041 47.9994 8.99556 48.7131 9.39705C49.3742 9.77831 49.9313 10.3159 50.3352 10.9625C50.7761 11.7434 50.9895 12.6318 50.9512 13.5273C50.9976 14.6077 50.6531 15.6687 49.9806 16.5166C49.3247 17.2985 48.5007 17.9227 47.5698 18.343C46.5859 18.791 45.5402 19.0892 44.4676 19.2274C43.4398 19.3725 42.4034 19.4494 41.3654 19.4574C40.2398 19.4712 39.1149 19.3943 38.0017 19.2274C37.2354 19.1104 36.4817 18.9223 35.7504 18.6658C35.2647 18.4915 34.7884 18.2923 34.3234 18.0688C34.0417 17.9121 33.728 17.8214 33.406 17.8035C33.3152 17.8132 33.228 17.8438 33.1511 17.8929C33.0742 17.942 33.0097 18.0083 32.9629 18.0865L32.4709 17.8035L34.3633 13.5494Z" fill="#1D1D1B"/>
  <path d="M75.7245 18.0687C75.7245 18.5109 75.9816 18.7011 76.5001 18.7011V19.3335H71.0757V18.7011C71.2379 18.7034 71.3953 18.6468 71.5188 18.5419C71.5852 18.483 71.6373 18.4098 71.6711 18.3278C71.7049 18.2458 71.7195 18.1572 71.7139 18.0687V4.07717H65.8995C65.6817 4.078 65.4684 4.13925 65.2835 4.25407C65.1766 4.327 65.0919 4.42788 65.0388 4.54567C64.9856 4.66347 64.966 4.79363 64.9821 4.92181H64.3484V0H64.9821C64.967 0.128101 64.9871 0.257882 65.0401 0.375491C65.0932 0.493099 65.1773 0.59412 65.2835 0.667743C65.4693 0.780497 65.682 0.841581 65.8995 0.844638H81.5433C81.7607 0.840945 81.9733 0.779907 82.1594 0.667743C82.2647 0.593586 82.3479 0.492307 82.4002 0.374735C82.4525 0.257163 82.4719 0.127684 82.4563 0H83.09V4.92181H82.4563C82.4729 4.79405 82.4539 4.66418 82.4016 4.54643C82.3492 4.42867 82.2654 4.32755 82.1594 4.25407C81.9741 4.13989 81.761 4.07868 81.5433 4.07717H75.729L75.7245 18.0687Z" fill="#1D1D1B"/>
  <path d="M102.111 1.49465C101.592 1.49465 101.335 1.70246 101.335 2.12699V12.6694C101.335 14.1434 101.811 15.1575 102.762 15.7118C103.714 16.266 105.105 16.5417 106.937 16.5387C108.769 16.5387 110.16 16.2631 111.112 15.7118C112.063 15.1605 112.539 14.1463 112.539 12.6694V2.14912C112.539 1.70691 112.189 1.51673 111.484 1.51673V0.884399H117.117V1.51673C116.554 1.51673 116.275 1.7246 116.275 2.14912V12.519C116.314 13.6907 116.109 14.8579 115.672 15.9461C115.299 16.8207 114.684 17.5709 113.899 18.1085C112.999 18.6863 111.982 19.0578 110.921 19.1964C109.562 19.3961 108.19 19.4907 106.817 19.4794C105.444 19.4903 104.072 19.3958 102.714 19.1964C101.653 19.057 100.636 18.6855 99.7354 18.1085C98.9502 17.5709 98.3352 16.8207 97.9628 15.9461C97.5293 14.8569 97.3256 13.6902 97.3645 12.519V2.14912C97.3645 1.70691 97.0365 1.51673 96.3762 1.51673V0.884399H102.137L102.111 1.49465Z" fill="#1D1D1B"/>
  <path d="M143.259 0.862247C144.486 0.851518 145.706 1.04124 146.871 1.42386C147.95 1.77643 148.94 2.35713 149.774 3.12637C150.627 3.93161 151.29 4.91656 151.715 6.00959C152.211 7.31676 152.45 8.70704 152.419 10.1045C152.45 11.5019 152.211 12.8922 151.715 14.1994C151.291 15.2929 150.628 16.2781 149.774 17.0826C148.939 17.8513 147.949 18.4333 146.871 18.7895C145.705 19.1701 144.485 19.3597 143.259 19.3511H131.564V18.7187C132.1 18.7187 132.37 18.5065 132.37 18.0864V2.1491C132.37 1.70689 132.1 1.51671 131.564 1.51671V0.884379L143.259 0.862247ZM141.85 16.3396C142.82 16.3529 143.789 16.2594 144.739 16.0611C145.495 15.9048 146.198 15.5593 146.782 15.0572C147.349 14.5368 147.768 13.8763 147.996 13.1425C148.292 12.1622 148.428 11.141 148.4 10.1178C148.428 9.09452 148.292 8.07342 147.996 7.09305C147.767 6.35978 147.348 5.6995 146.782 5.17824C146.197 4.67755 145.494 4.33363 144.739 4.17883C143.79 3.9766 142.82 3.88166 141.85 3.89581H136.403V16.3396H141.85Z" fill="#1D1D1B"/>
  <path d="M166.827 18.7187C167.434 18.7187 167.74 18.5065 167.74 18.0864V2.14912C167.74 1.70691 167.434 1.51673 166.827 1.51673V0.884399H172.672V1.51673C172.061 1.51673 171.759 1.72459 171.759 2.14912V18.0687C171.759 18.5109 172.061 18.7011 172.672 18.7011V19.3334H166.827V18.7187Z" fill="#1D1D1B"/>
  <path d="M198.85 0.650024C200.186 0.655109 201.514 0.850196 202.795 1.22935C204.105 1.60044 205.344 2.18783 206.46 2.9672C207.563 3.74222 208.488 4.74328 209.172 5.90348C209.9 7.18185 210.265 8.63443 210.227 10.1045C210.265 11.5745 209.9 13.0271 209.172 14.3055C208.489 15.4666 207.564 16.4679 206.46 17.2417C205.349 18.0185 204.108 18.5892 202.795 18.9265C201.509 19.2733 200.183 19.4517 198.85 19.4572C197.517 19.452 196.189 19.2735 194.902 18.9265C193.59 18.5891 192.35 18.0184 191.241 17.2417C190.136 16.4691 189.211 15.4676 188.529 14.3055C187.799 13.0275 187.433 11.5749 187.47 10.1045C187.433 8.63402 187.799 7.18141 188.529 5.90348C189.212 4.7423 190.137 3.74097 191.241 2.9672C192.355 2.18783 193.593 1.60043 194.902 1.22935C196.184 0.849898 197.513 0.65481 198.85 0.650024ZM198.85 3.8826C197.947 3.8924 197.05 4.04156 196.191 4.32481C195.324 4.59149 194.508 5.00102 193.776 5.53647C193.064 6.05632 192.47 6.72095 192.035 7.48657C191.576 8.29478 191.343 9.21116 191.361 10.1398C191.342 11.0687 191.575 11.9854 192.035 12.7931C192.471 13.5592 193.065 14.2252 193.776 14.7477C194.509 15.2814 195.325 15.6908 196.191 15.9593C197.05 16.2405 197.947 16.3897 198.85 16.4015C199.754 16.389 200.651 16.2399 201.509 15.9593C202.374 15.6908 203.189 15.2814 203.92 14.7477C204.632 14.2241 205.227 13.5584 205.666 12.7931C206.123 11.9841 206.354 11.068 206.336 10.1398C206.353 9.21179 206.122 8.29594 205.666 7.48657C205.228 6.72169 204.633 6.05733 203.92 5.53647C203.19 5.0011 202.375 4.59155 201.509 4.32481C200.651 4.04225 199.754 3.8931 198.85 3.8826Z" fill="#1D1D1B"/>
  <path d="M287.24 13.5493L287.591 13.7262C287.587 13.9226 287.636 14.1163 287.732 14.2878C287.979 14.6427 288.313 14.9277 288.703 15.1147C289.231 15.4047 289.784 15.6459 290.356 15.8355C290.994 16.0512 291.648 16.2211 292.31 16.3441C292.915 16.465 293.529 16.5301 294.145 16.5387C294.544 16.5387 295.058 16.5077 295.696 16.4502C296.329 16.392 296.954 16.269 297.562 16.0832C298.13 15.9138 298.666 15.6523 299.148 15.3093C299.359 15.1644 299.53 14.9699 299.646 14.743C299.763 14.5162 299.822 14.2641 299.818 14.0092C299.831 13.7723 299.781 13.5362 299.671 13.3255C299.562 13.1147 299.399 12.9369 299.197 12.8108C298.699 12.5228 298.15 12.3322 297.58 12.2492C296.822 12.1238 296.056 12.047 295.288 12.0192C294.433 11.9838 293.556 11.9308 292.665 11.8645C291.784 11.7949 290.909 11.6768 290.041 11.5107C289.236 11.3674 288.461 11.0877 287.75 10.6838C287.085 10.3026 286.527 9.75945 286.128 9.10508C285.684 8.30454 285.471 7.3969 285.512 6.4828C285.515 5.7384 285.69 5.00461 286.022 4.33804C286.39 3.60282 286.928 2.96494 287.591 2.47635C288.393 1.88396 289.293 1.43509 290.25 1.14972C291.485 0.788431 292.769 0.616942 294.056 0.641166C295.143 0.62708 296.228 0.720401 297.296 0.919761C298.212 1.11139 299.005 1.31037 299.676 1.51673C300.345 1.72899 300.908 1.92804 301.364 2.11819C301.726 2.28123 302.115 2.3757 302.512 2.39678C302.766 2.42109 303.019 2.3448 303.217 2.18448L303.638 2.4675L301.205 6.86309L300.855 6.72156C300.821 6.43425 300.724 6.15794 300.571 5.91233C300.323 5.57392 300.006 5.29203 299.64 5.0854C299.155 4.79314 298.642 4.55159 298.107 4.3646C297.487 4.14712 296.852 3.9771 296.206 3.85604C295.532 3.728 294.848 3.66289 294.163 3.6615C293.626 3.66433 293.09 3.70567 292.558 3.78527C292.048 3.85879 291.546 3.98327 291.061 4.15677C290.652 4.29788 290.275 4.51885 289.953 4.80681C289.81 4.93112 289.697 5.08497 289.62 5.2576C289.544 5.43023 289.506 5.61747 289.509 5.80621C289.495 6.05207 289.543 6.29759 289.651 6.51913C289.759 6.74067 289.923 6.93073 290.125 7.07092C290.619 7.38678 291.17 7.60308 291.747 7.70768C292.503 7.85776 293.269 7.95089 294.039 7.98627C294.894 8.03491 295.771 8.09241 296.662 8.16317C297.543 8.2331 298.419 8.35569 299.286 8.53024C300.09 8.6875 300.864 8.97263 301.577 9.37482C302.238 9.75607 302.795 10.2937 303.199 10.9403C303.64 11.7212 303.853 12.6096 303.815 13.5051C303.861 14.5855 303.517 15.6464 302.844 16.4944C302.189 17.2762 301.365 17.9005 300.434 18.3207C299.45 18.7688 298.404 19.0669 297.331 19.2051C296.304 19.3503 295.267 19.4271 294.229 19.4351C293.102 19.449 291.976 19.372 290.861 19.2051C290.095 19.0881 289.341 18.9001 288.61 18.6436C288.124 18.4685 287.648 18.2692 287.183 18.0466C286.901 17.8899 286.587 17.7992 286.265 17.7812C286.174 17.7903 286.087 17.8206 286.01 17.8698C285.933 17.9189 285.869 17.9856 285.822 18.0643L285.326 17.7812L287.24 13.5493Z" fill="#1D1D1B"/>
  <path d="M316.583 18.7188C316.728 18.7008 316.867 18.6521 316.992 18.5758C317.117 18.4995 317.223 18.3975 317.305 18.2766C317.496 17.9941 317.666 17.6985 317.815 17.3922L324.334 3.71465C324.498 3.41395 324.644 3.13092 324.777 2.87444C324.891 2.66763 324.956 2.43781 324.968 2.20227C324.977 2.10589 324.959 2.00878 324.916 1.92201C324.873 1.83523 324.806 1.76228 324.724 1.71143C324.557 1.61764 324.378 1.54769 324.192 1.5036V0.871216H330.148V1.5036C329.979 1.55145 329.814 1.61508 329.656 1.69372C329.569 1.74445 329.499 1.81987 329.455 1.9104C329.411 2.00093 329.394 2.10251 329.408 2.20227C329.409 2.39759 329.451 2.59053 329.532 2.76832C329.612 2.95404 329.736 3.21049 329.9 3.50677L337.23 17.8123C337.324 18.0451 337.49 18.2417 337.704 18.3739C337.927 18.5035 338.156 18.6216 338.391 18.7277V19.3601H332.187V18.7277C332.31 18.7194 332.43 18.6831 332.537 18.6215C332.6 18.5959 332.654 18.5517 332.692 18.495C332.73 18.4382 332.75 18.3714 332.75 18.3032C332.724 17.9829 332.629 17.672 332.47 17.3922L331.141 14.7876H322.535L321.267 17.2861C321.082 17.6106 320.961 17.9681 320.913 18.3385C320.913 18.5994 321.134 18.7277 321.582 18.7277V19.3601H316.578L316.583 18.7188ZM329.878 12.1786L326.918 5.63826L323.607 12.1786H329.878Z" fill="#1D1D1B"/>
  <path d="M352.059 18.7187C352.502 18.7187 352.728 18.5065 352.728 18.0864V2.14912C352.728 1.70691 352.506 1.51673 352.059 1.51673V0.884399H358.086V1.51673C357.895 1.51673 357.802 1.63172 357.802 1.86609C357.802 2.10047 358.037 2.38347 358.507 2.84779L368.62 13.3238V2.14912C368.62 1.70691 368.314 1.51673 367.703 1.51673V0.884399H373.021V1.51673C372.577 1.51673 372.351 1.72459 372.351 2.14912V18.0687C372.351 18.5109 372.573 18.7011 373.021 18.7011V19.3334H367.295V18.7011C367.601 18.7011 367.738 18.5949 367.738 18.3827C367.738 18.1704 367.547 17.9405 367.175 17.5734L356.428 6.39433V18.0687C356.428 18.5109 356.699 18.7011 357.239 18.7011V19.3334H352.023L352.059 18.7187Z" fill="#1D1D1B"/>
  <path d="M400.089 0.862279C401.316 0.851151 402.536 1.04088 403.701 1.4239C404.782 1.77537 405.774 2.35617 406.608 3.1264C407.461 3.9319 408.122 4.91687 408.545 6.00962C409.041 7.31679 409.28 8.70707 409.25 10.1045C409.28 11.5019 409.041 12.8922 408.545 14.1994C408.123 15.2927 407.462 16.2779 406.608 17.0826C405.773 17.8528 404.782 18.4349 403.701 18.7895C402.536 19.1704 401.316 19.3601 400.089 19.3512H388.394V18.7188C388.935 18.7188 389.205 18.5065 389.205 18.0864V2.14913C389.205 1.70692 388.935 1.51674 388.394 1.51674V0.884411L400.089 0.862279ZM398.68 16.3397C399.651 16.3531 400.62 16.2597 401.569 16.0611C402.325 15.9057 403.028 15.5602 403.613 15.0573C404.18 14.537 404.601 13.8766 404.831 13.1425C405.125 12.1618 405.261 11.1409 405.234 10.1178C405.26 9.09465 405.124 8.07387 404.831 7.09308C404.599 6.35994 404.179 5.69994 403.613 5.17827C403.028 4.67676 402.325 4.33273 401.569 4.17886C400.62 3.97641 399.651 3.88146 398.68 3.89584H393.22V16.3397H398.68Z" fill="#1D1D1B"/>
  <path d="M441.154 4.6566C441.16 4.54239 441.136 4.42843 441.084 4.32657C441.032 4.2247 440.953 4.13863 440.857 4.07728C440.533 3.92217 440.173 3.85508 439.815 3.88274H428.404V8.24291H435.308C435.682 8.26067 436.054 8.19413 436.398 8.04831C436.655 7.92007 436.788 7.60609 436.788 7.04449H437.422V12.5323H436.788C436.788 11.9928 436.655 11.6479 436.398 11.4931C436.061 11.323 435.685 11.2437 435.308 11.2632H428.404V16.1275H440.17C440.475 16.1416 440.777 16.0563 441.029 15.8843C441.137 15.8099 441.224 15.7097 441.283 15.5931C441.342 15.4765 441.37 15.347 441.366 15.2165H442V20.0322H441.366C441.366 19.6784 441.255 19.4794 441.029 19.4352C440.746 19.3819 440.458 19.3582 440.17 19.3645H423.75V18.7321C423.912 18.7324 424.069 18.6761 424.193 18.5729C424.259 18.5138 424.311 18.4404 424.344 18.3584C424.377 18.2764 424.39 18.1879 424.384 18.0997V2.14926C424.391 2.06042 424.377 1.97121 424.344 1.88843C424.311 1.80564 424.26 1.73151 424.193 1.6717C424.068 1.57138 423.911 1.51675 423.75 1.51688V0.884551H439.815C440.178 0.916406 440.541 0.836112 440.857 0.654594C440.952 0.58352 441.029 0.490563 441.081 0.383557C441.132 0.276551 441.157 0.158648 441.154 0.039917H441.787V4.67868L441.154 4.6566Z" fill="#1D1D1B"/>
  <path d="M247.324 12.6958C248.759 12.6958 249.921 11.5356 249.921 10.1045C249.921 8.67335 248.759 7.51318 247.324 7.51318C245.89 7.51318 244.727 8.67335 244.727 10.1045C244.727 11.5356 245.89 12.6958 247.324 12.6958Z" fill="#C49A72"/>
  </svg>
  