<svg width="27" height="37" viewBox="0 0 27 37" fill="none" xmlns="http://www.w3.org/2000/svg">
<g clip-path="url(#clip0_270_556)">
<path d="M13.5611 37.0103C11.3883 33.6768 9.26795 30.4685 7.19622 27.2299C5.44711 24.4975 3.698 21.7594 2.06161 18.9682C-0.507642 14.607 -0.00429192 8.96972 3.21019 4.98017C4.80064 2.97975 6.96153 1.48251 9.42139 0.676548C11.8813 -0.129416 14.5304 -0.208153 17.036 0.45022C22.1511 1.81357 25.9662 6.01928 26.6464 11.0214C27.0351 13.9377 26.6094 16.7099 25.0197 19.2261C21.3465 25.0303 17.6209 30.8022 13.9167 36.5875C13.8409 36.6899 13.7496 36.7771 13.5611 37.0103ZM13.6466 7.24041C10.4437 7.22335 7.80064 9.7737 7.81619 12.8645C7.81122 13.981 8.14552 15.0739 8.77685 16.0052C9.40818 16.9365 10.3082 17.6643 11.3633 18.0968C12.4184 18.5292 13.5812 18.6469 14.7047 18.4349C15.8283 18.223 16.8623 17.6909 17.6761 16.9059C18.49 16.1209 19.0471 15.1182 19.2771 14.0244C19.5071 12.9306 19.3998 11.7949 18.9686 10.7606C18.5374 9.72637 17.8017 8.83998 16.8545 8.21344C15.9072 7.58689 14.7909 7.24829 13.6466 7.24041Z" fill="#27356C"/>
</g>
<defs>
<clipPath id="clip0_270_556">
<rect width="26.3514" height="37" fill="white" transform="translate(0.423431)"/>
</clipPath>
</defs>
</svg>
