<svg width="33" height="34" viewBox="0 0 33 34" fill="none" xmlns="http://www.w3.org/2000/svg">
<path d="M0 33.166C0.755558 30.4086 1.49576 27.7269 2.21403 25.0386C2.2684 24.8004 2.23977 24.5508 2.13288 24.3312C-2.34125 15.8517 0.960617 5.75445 9.58978 1.56901C17.5741 -2.30494 27.5861 1.2937 31.3891 9.3136C35.3237 17.611 31.8069 27.4944 23.4936 31.3431C18.719 33.5543 13.9224 33.3985 9.17855 31.1424C8.91393 31.0097 8.61385 30.9652 8.32211 31.0152C5.57074 31.7061 2.82704 32.43 0 33.166ZM11.1689 8.91985L11.1437 8.75204C10.6973 8.91436 10.1567 8.9714 9.82116 9.25876C8.51072 10.3973 8.02164 11.878 8.30456 13.5923C8.57433 15.2375 9.50315 16.5537 10.4594 17.8435C12.3379 20.3848 14.5782 22.4776 17.6432 23.5162C18.9855 23.9714 20.3211 24.5637 21.7884 24.2555C23.6767 23.8584 24.9532 22.7101 24.872 20.7523C24.8632 20.5417 24.7108 20.2401 24.5365 20.1501C23.453 19.5896 22.3433 19.0785 21.2467 18.5477C20.8234 18.3437 20.5404 18.4764 20.2718 18.8471C19.8978 19.3637 19.4658 19.8342 19.0655 20.3322C18.8363 20.613 18.5753 20.6547 18.2398 20.5176C16.1222 19.6533 14.3808 18.3184 13.0978 16.4166C12.1481 15.0105 12.3302 15.2869 13.2009 14.2087C13.3709 13.9959 13.5748 13.7809 13.6516 13.533C13.7415 13.2424 13.8062 12.875 13.7097 12.6084C13.3807 11.6641 12.964 10.7438 12.5846 9.81923C12.3258 9.19734 11.9869 8.70378 11.1689 8.91985Z" fill="#27356C"/>
</svg>
